{"title":"Chi-Raq.2015.BRRip.720p.x264.AAC-PRiSTiNE [P2PDL]","uid":13122046,"size":852871123,"categoryP":"video","categoryS":"movies","magnet":"?xt=urn:btih:abfe577dfd4899cecaaa813c32b9064cad62e66d&amp;dn=Chi-Raq.2015.BRRip.720p.x264.AAC-PRiSTiNE+%5BP2PDL%5D&amp;tr=udp%3A%2F%2Ftracker.leechers-paradise.org%3A6969&amp;tr=udp%3A%2F%2Fzer0day.ch%3A1337&amp;tr=udp%3A%2F%2Fopen.demonii.com%3A1337&amp;tr=udp%3A%2F%2Ftracker.coppersurfer.tk%3A6969&amp;tr=udp%3A%2F%2Fexodus.desync.com%3A6969","seeders":2,"leechers":1,"uploader":"VYTOP2PDL","files":7,"time":1451723071,"description":"____    ____ ____    ____ .___________.  ______   \r\n     /   /      /   / |           | /  __    \r\n    /   /      /   /  `---|  |----`|  |  |  | \r\n        /     _    _/       |  |     |  |  |  | \r\n       /        |  |         |  |     |  `--'  | \r\n    __/         |__|         |__|      ______/  \r\n                                                  \r\nPresenting Small Encodes with quality for years!\r\n                                                                                                   \r\n                                                                                                   \r\n\r\nChi-Raq.2015.BRRip.720p.x264.AAC-PRiSTiNE\r\n\r\n\r\nGenre: Drama \nhttp://www.imdb.com/title/tt4594834/\r\n\r\n\r\nFormat                                   : MPEG-4\r\nFile size                                : 802 MiB\r\nDuration                                 : 2h 6mn\r\nOverall bit rate                         : 884 Kbps\r\n\r\nVideo\r\nFormat                                   : AVC\r\nBit rate                                 : 801 Kbps\r\nWidth                                    : 1 264 pixels\r\nHeight                                   : 528 pixels\r\nDisplay aspect ratio                     : 2.40:1\r\nFrame rate mode                          : Constant\r\nFrame rate                               : 23.976 fps\r\nBit depth                                : 8 bits\r\nStream size                              : 726 MiB (91%)\r\nWriting library                          : x264\r\n\r\nAudio\r\nFormat                                   : AAC\r\nBit rate mode                            : Variable\r\nBit rate                                 : 80.0 Kbps\r\nChannel(s)                               : 2 channels\r\nChannel positions                        : Front: L R\r\nSampling rate                            : 48.0 KHz\r\nStream size                              : 72.5 MiB (9%)\r\nLanguage                                 : English\r\n\r\nSubtitle                                 : Yes (English)\r\n\r\nScreen Shots: (Click to view)\r\n \nhttp://ititli.com/Zx \nhttp://ititli.com/Z7 \nhttp://ititli.com/ZF \nhttp://ititli.com/ZJ \nhttp://ititli.com/Z5 \nhttp://ititli.com/ZB \nhttp://ititli.com/ZN \nhttp://ititli.com/ZP \nhttp://ititli.com/Zf\r\n\r\n----------------------------------------------------------------------------------------------------\r\n\r\n\r\nEncoder Notes: Looking For Early Access To Anything You Can Provide WEBDL, DVDScr, DVDR, BluRay,\r\nDirect Audio, Music Releases and Seedboxes. If You Got anything to offer please contact us.\r\n\r\nSupport us by donating BC - 1FgwdzPsd1y25Gea8wP1qni35uGCtmkRCD\r\n\r\nSend some love!\r\nFind us and join us!","torrent":{"xt":"urn:btih:abfe577dfd4899cecaaa813c32b9064cad62e66d","amp;dn":"Chi-Raq.2015.BRRip.720p.x264.AAC-PRiSTiNE+%5BP2PDL%5D","amp;tr":["udp%3A%2F%2Ftracker.leechers-paradise.org%3A6969","udp%3A%2F%2Fzer0day.ch%3A1337","udp%3A%2F%2Fopen.demonii.com%3A1337","udp%3A%2F%2Ftracker.coppersurfer.tk%3A6969","udp%3A%2F%2Fexodus.desync.com%3A6969"],"infoHash":"abfe577dfd4899cecaaa813c32b9064cad62e66d","infoHashBuffer":{"type":"Buffer","data":[171,254,87,125,253,72,153,206,202,170,129,60,50,185,6,76,173,98,230,109]},"announce":[],"urlList":[]}}